# xmcd
#
# Track frame offsets: 
#        150
#        15826
#        27370
#        42541
#        58218
#        67405
#        84749
#        94707
#        105633
#        122071
#        134241
#
# Disc length: 1933 seconds
#
# Revision: 0
# Processed by: cddbd v1.5.2PL0 Copyright (c) Steve Scherf et al.
# Submitted via: ExactAudioCopy v0.95b4
#
DISCID=a0078b0b
DTITLE=Jamie Bassett - Sold The Alamo
DYEAR=2005
DGENRE=Blues
TTITLE0=Sold The Alamo
TTITLE1=Dressed In Pink
TTITLE2=That Beat's Alive
TTITLE3=Let's Go Walkin'
TTITLE4=Over My Shoulder
TTITLE5=Mississippi Time
TTITLE6=Harlem Nocturne Inverse
TTITLE7=This Way Then That
TTITLE8=All She Has On Her Mind
TTITLE9=Heart In Overdrive
TTITLE10=Casa Linda Shuffle
EXTD=
EXTT0=
EXTT1=
EXTT2=
EXTT3=
EXTT4=
EXTT5=
EXTT6=
EXTT7=
EXTT8=
EXTT9=
EXTT10=
PLAYORDER=
